#!OML:ASF F:\VICON\USERDATA\INSTALL\rory3\rory3.ASF
:FULLY-SPECIFIED
:DEGREES
229
root 0.609969 17.9149 14.1417 -4.18247 -2.02073 0.899308
lowerback 10.9813 0.569471 -0.335371
upperback 0.385449 0.780012 1.09426
thorax -5.78051 0.407007 1.21248
lowerneck -15.4801 -2.62214 -1.6642
upperneck 20.6261 -3.41261 0.7878
head 9.07188 -1.64362 0.126096
rclavicle -5.65294e-015 4.37326e-015
rhumerus -29.6716 -28.8643 -73.4265
rradius 20.798
rwrist 9.87212
rhand -18.0587 23.4743
rfingers 7.12502
rthumb 8.21364 -6.34606
lclavicle -5.65294e-015 4.37326e-015
lhumerus -32.7401 0.685426 82.9944
lradius 23.9454
lwrist 1.87989
lhand -25.8272 28.176
lfingers 7.12502
lthumb 0.712674 58.1546
rfemur -23.2142 -2.46357 19.9512
rtibia 77.2972
rfoot -2.64734 -6.51196
rtoes 9.93276
lfemur -6.03159 -2.24622 -26.6773
ltibia 29.382
lfoot -14.1205 -2.17036
ltoes 2.02193
230
root 0.613877 17.912 14.3095 -4.08907 -1.71583 1.26027
lowerback 10.812 0.401873 -0.776222
upperback 0.436738 0.498787 1.03764
thorax -5.62782 0.278867 1.44681
lowerneck -15.5992 -2.54496 -1.55314
upperneck 20.6312 -3.30248 0.66112
head 9.08961 -1.59678 0.0765429
rclavicle -1.18774e-014 -5.56597e-015
rhumerus -29.9327 -28.1348 -73.6426
rradius 21.2955
rwrist 9.62103
rhand -18.7941 22.5921
rfingers 7.12502
rthumb 7.50388 -7.25484
lclavicle -1.18774e-014 -5.56597e-015
lhumerus -32.5995 0.204174 82.9942
lradius 24.7776
lwrist 2.14411
lhand -26.3738 27.962
lfingers 7.12502
lthumb 0.184671 57.9416
rfemur -24.3704 -2.6811 19.641
rtibia 76.4808
rfoot -4.21572 -6.25178
rtoes 9.23514
lfemur -5.49819 -2.19463 -27.1477
ltibia 29.4534
lfoot -14.6044 -2.2714
ltoes 2.13202
231
root 0.61441 17.9038 14.467 -3.95073 -1.57112 1.23179
lowerback 10.7681 0.277551 -0.888801
upperback 0.499227 0.325815 1.14674
thorax -5.53334 0.197117 1.6514
lowerneck -15.7742 -2.53833 -1.57293
upperneck 20.6145 -3.25753 0.542798
head 9.11376 -1.58959 0.0427988
rclavicle -1.6524e-015 -1.19271e-015
rhumerus -30.0599 -27.8125 -73.6968
rradius 21.6114
rwrist 9.74652
rhand -18.8554 21.6954
rfingers 7.12502
rthumb 7.44468 -8.15364
lclavicle -1.6524e-015 -1.19271e-015
lhumerus -32.0596 -0.272498 83.0953
lradius 25.2803
lwrist 2.58803
lhand -26.44 27.4699
lfingers 7.12502
lthumb 0.120743 57.4496
rfemur -25.6064 -2.66984 19.8736
rtibia 75.4779
rfoot -5.72497 -6.17547
rtoes 6.74448
lfemur -5.00529 -2.12579 -27.155
ltibia 29.438
lfoot -14.9549 -2.30815
ltoes 2.78676
232
root 0.614979 17.9022 14.6237 -3.90713 -1.38624 1.25002
lowerback 10.902 0.189766 -0.975149
upperback 0.497858 0.200096 1.18404
thorax -5.60586 0.138497 1.75898
lowerneck -15.4621 -2.53166 -1.56952
upperneck 20.3307 -3.2365 0.481064
head 8.9572 -1.58852 0.0300596
rclavicle -4.8578e-015 -1.11319e-014
rhumerus -30.5341 -26.9536 -73.9271
rradius 21.8431
rwrist 7.86171
rhand -19.3148 22.3162
rfingers 7.12502
rthumb 7.00127 -7.548
lclavicle -4.8578e-015 -1.11319e-014
lhumerus -31.3811 -0.986776 83.192
lradius 25.2748
lwrist 3.15284
lhand -26.5805 26.482
lfingers 7.12502
lthumb -0.0149436 56.4617
rfemur -26.5767 -2.67414 20.0398
rtibia 74.2743
rfoot -6.83968 -6.24031
rtoes 4.94242
lfemur -4.4472 -1.98395 -27.2165
ltibia 29.2786
lfoot -15.1519 -2.34497
ltoes 2.62995
233
root 0.617356 17.9105 14.7875 -3.9146 -1.14 1.43021
lowerback 11.0935 0.0915507 -1.12598
upperback 0.513145 0.0458928 1.12166
thorax -5.69138 0.0663891 1.80364
lowerneck -15.4473 -2.51157 -1.40503
upperneck 20.1795 -3.19633 0.252608
head 8.895 -1.58229 -0.068395
rclavicle -2.73329e-016 -8.74653e-015
rhumerus -30.9792 -26.2875 -74.1355
rradius 22.4126
rwrist 7.39225
rhand -19.2634 21.8578
rfingers 7.12502
rthumb 7.05093 -8.00471
lclavicle -2.73329e-016 -8.74653e-015
lhumerus -30.9636 -1.66978 83.1699
lradius 25.7187
lwrist 3.49287
lhand -25.8477 26.7188
lfingers 7.12502
lthumb 0.692851 56.6974
rfemur -27.3504 -2.71351 19.9501
rtibia 72.8444
rfoot -7.69735 -6.39184
rtoes 4.31684
lfemur -3.74889 -1.92124 -27.4615
ltibia 28.9793
lfoot -15.3605 -2.49447
ltoes 3.30103
234
root 0.620881 17.9072 14.9543 -3.87023 -0.802849 1.96703
lowerback 11.2349 -0.0165257 -1.67118
upperback 0.506195 -0.174584 1.01698
thorax -5.76804 -0.0281081 2.03791
lowerneck -15.7436 -2.55795 -1.4196
upperneck 20.3823 -3.24064 0.191321
head 9.01853 -1.60926 -0.0980265
rclavicle 1.18277e-014 6.75868e-015
rhumerus -31.2431 -25.8468 -74.1876
rradius 22.7438
rwrist 7.22444
rhand -19.4243 21.4705
rfingers 7.12502
rthumb 6.89561 -8.39719
lclavicle 1.18277e-014 6.75868e-015
lhumerus -30.424 -2.184 83.2091
lradius 26.045
lwrist 4.00558
lhand -26.4754 25.8589
lfingers 7.12502
lthumb 0.0865607 55.8386
rfemur -28.1185 -2.96168 19.4213
rtibia 71.3034
rfoot -8.56203 -6.55734
rtoes 2.62084
lfemur -2.96033 -1.91054 -28.1352
ltibia 28.565
lfoot -15.5465 -2.4971
ltoes 3.34899
235
root 0.620681 17.8949 15.1296 -3.8168 -0.430118 2.48308
lowerback 11.1251 -0.114637 -2.27608
upperback 0.547537 -0.384384 0.938982
thorax -5.64981 -0.11836 2.3299
lowerneck -15.7114 -2.62309 -1.65953
upperneck 20.3567 -3.33473 0.47201
head 9.01447 -1.64133 0.0261022
rclavicle 1.78409e-014 6.36111e-015
rhumerus -31.5055 -25.267 -74.3387
rradius 23.066
rwrist 6.61852
rhand -19.5887 19.8149
rfingers 7.12502
rthumb 6.73691 -10.0579
lclavicle 1.78409e-014 6.36111e-015
lhumerus -29.6862 -2.69805 83.2967
lradius 25.9421
lwrist 4.97787
lhand -28.5783 21.4954
lfingers 7.12502
lthumb -1.94443 51.4663
rfemur -28.799 -3.1955 18.9468
rtibia 69.6296
rfoot -9.61046 -6.811
rtoes 0.0103736
lfemur -2.09248 -1.85797 -28.7577
ltibia 28.0827
lfoot -15.6771 -2.50637
ltoes 2.48803
236
root 0.612933 17.8927 15.3 -3.74618 -0.397629 2.33403
lowerback 10.9693 -0.183515 -2.33152
upperback 0.658545 -0.471294 1.07261
thorax -5.43914 -0.162561 2.51229
lowerneck -15.6948 -2.5699 -1.92161
upperneck 20.1851 -3.24914 0.722361
head 8.9609 -1.5945 0.166526
rclavicle 1.17531e-014 -3.18055e-015
rhumerus -31.7377 -24.6939 -74.529
rradius 23.3658
rwrist 5.90982
rhand -19.1517 20.2997
rfingers 7.12502
rthumb 7.15872 -9.55925
lclavicle 1.17531e-014 -3.18055e-015
lhumerus -28.9257 -2.55264 83.1013
lradius 25.9072
lwrist 4.70534
lhand -28.2034 21.0058
lfingers 7.12502
lthumb -1.58238 50.9796
rfemur -29.4925 -2.98306 19.3395
rtibia 67.707
rfoot -10.4883 -7.52002
rtoes -5.0555
lfemur -1.28927 -1.64853 -28.5806
ltibia 27.6188
lfoot -15.8449 -2.50983
ltoes 1.79971
237
root 0.612111 17.8926 15.4607 -3.57879 -0.284017 2.21208
lowerback 10.9724 -0.281892 -2.2647
upperback 0.602975 -0.590374 1.1366
thorax -5.49214 -0.220589 2.56064
lowerneck -15.5886 -2.50868 -1.86296
upperneck 20.1047 -3.13991 0.545541
head 8.9082 -1.55877 0.112135
rclavicle -1.49337e-014 -4.37326e-015
rhumerus -32.1938 -24.4003 -74.5067
rradius 23.5939
rwrist 5.82123
rhand -19.0924 20.801
rfingers 7.12502
rthumb 7.21597 -9.05595
lclavicle -1.49337e-014 -4.37326e-015
lhumerus -28.401 -2.46046 82.8428
lradius 26.0289
lwrist 4.09884
lhand -27.0799 24.525
lfingers 7.12502
lthumb -0.497295 54.5041
rfemur -30.2053 -2.86403 19.643
rtibia 65.5803
rfoot -10.6936 -8.24687
rtoes -9.99671
lfemur -0.675771 -1.5059 -28.4628
ltibia 27.1312
lfoot -15.8061 -2.42581
ltoes 1.273
238
root 0.613284 17.8861 15.6242 -3.41806 0.0380306 2.44092
lowerback 11.1583 -0.39339 -2.47988
upperback 0.431349 -0.77353 1.08234
thorax -5.76422 -0.299259 2.65895
lowerneck -15.5048 -2.50192 -1.76075
upperneck 20.1364 -3.13354 0.434595
head 8.89989 -1.56043 0.0592568
rclavicle 1.3418e-015 3.97569e-016
rhumerus -32.7881 -23.8618 -74.5196
rradius 23.9964
rwrist 5.45832
rhand -19.0948 21.2543
rfingers 7.12502
rthumb 7.21361 -8.60278
lclavicle 1.3418e-015 3.97569e-016
lhumerus -28.0721 -2.85788 82.8039
lradius 26.2754
lwrist 4.56862
lhand -26.8777 25.5302
lfingers 7.12502
lthumb -0.301969 55.5097
rfemur -30.8282 -3.02047 19.505
rtibia 63.2981
rfoot -9.71616 -8.64697
rtoes -7.36655
lfemur -0.125456 -1.53345 -28.7424
ltibia 26.6246
lfoot -15.7451 -2.55558
ltoes 1.16896
239
root 0.610063 17.8844 15.7978 -3.33037 0.183697 2.55817
lowerback 11.157 -0.436052 -2.67225
upperback 0.482556 -0.853608 1.09414
thorax -5.70153 -0.335084 2.79212
lowerneck -15.6572 -2.526 -1.79123
upperneck 20.037 -3.16898 0.496512
head 8.8957 -1.57204 0.0796364
rclavicle -1.05107e-014 -1.82882e-014
rhumerus -33.0569 -23.4929 -74.6181
rradius 24.2996
rwrist 4.96972
rhand -18.9813 22.426
rfingers 7.12502
rthumb 7.3232 -7.42729
lclavicle -1.05107e-014 -1.82882e-014
lhumerus -27.2785 -2.90645 82.6941
lradius 26.3716
lwrist 4.58622
lhand -27.8106 23.0657
lfingers 7.12502
lthumb -1.20297 53.0421
rfemur -31.2222 -2.90681 19.5128
rtibia 60.8184
rfoot -9.02771 -9.22777
rtoes -2.35792
lfemur 0.616945 -1.4605 -28.8461
ltibia 26.0393
lfoot -15.7153 -2.96147
ltoes 1.52066
